<svg width="59" height="53" viewBox="0 0 59 53" fill="none" xmlns="http://www.w3.org/2000/svg">
<rect x="1" y="1" width="57" height="51" rx="17" fill="#FCD100" stroke="black" stroke-width="2"/>
<path d="M19.6568 45.51C16.9368 45.51 14.8628 44.745 13.4348 43.215C12.0068 41.651 11.2928 39.424 11.2928 36.534V9.3H16.9028V36.942C16.9028 38.166 17.1408 39.05 17.6168 39.594C18.1268 40.138 18.8408 40.41 19.7588 40.41C20.6768 40.41 21.3738 40.138 21.8498 39.594C22.3598 39.05 22.6148 38.166 22.6148 36.942V9.3H28.0208V36.534C28.0208 39.424 27.3068 41.651 25.8788 43.215C24.4508 44.745 22.3768 45.51 19.6568 45.51ZM36.9135 26.742L30.7425 9.3H36.6585L40.4325 20.826H40.5345L44.4105 9.3H49.7145L43.5435 26.742L50.0205 45H44.1045L40.0245 32.556H39.9225L35.7405 45H30.4365L36.9135 26.742Z" fill="black"/>
</svg>
