<svg width="320" height="420" viewBox="0 0 320 420" fill="none" xmlns="http://www.w3.org/2000/svg">
  <rect width="320" height="420" rx="24" fill="#f5f7fb"/>
  <path d="M120 320 C110 250 110 210 130 180 C150 150 190 150 210 180 C230 210 230 250 220 320" fill="#1f2937"/>
  <path d="M135 190 C145 150 175 150 185 190" stroke="#f97316" stroke-width="8" stroke-linecap="round"/>
  <path d="M110 230 C90 260 80 300 100 320 L130 320" fill="#e11d48"/>
  <path d="M210 230 C230 260 240 300 220 320 L190 320" fill="#e11d48"/>
  <rect x="90" y="260" width="140" height="70" rx="18" fill="#0c3c80"/>
  <path d="M140 280 L150 300 L130 300 Z" fill="#facc15"/>
  <path d="M190 280 L180 320 L200 320 Z" fill="#f43f5e"/>
  <path d="M122 120 C122 105 134 93 149 93 H171 C186 93 198 105 198 120 C198 135 186 147 171 147 H149 C134 147 122 135 122 120 Z" fill="#111827"/>
  <circle cx="146" cy="115" r="10" fill="#facc15"/>
  <circle cx="174" cy="115" r="10" fill="#facc15"/>
  <path d="M154 118 Q160 122 166 118" stroke="#0ea5e9" stroke-width="4" fill="none"/>
  <path d="M80 210 L120 200" stroke="#ef4444" stroke-width="10" stroke-linecap="round"/>
  <path d="M240 210 L200 200" stroke="#ef4444" stroke-width="10" stroke-linecap="round"/>
  <path d="M110 320 L110 340 C110 350 120 360 130 360 L150 360" stroke="#ef4444" stroke-width="12" stroke-linecap="round"/>
  <path d="M210 320 L210 340 C210 350 200 360 190 360 L170 360" stroke="#ef4444" stroke-width="12" stroke-linecap="round"/>
  <rect x="125" y="360" width="40" height="26" rx="6" fill="#ef4444" stroke="#111827" stroke-width="4"/>
  <rect x="155" y="360" width="40" height="26" rx="6" fill="#ef4444" stroke="#111827" stroke-width="4"/>
  <text x="160" y="402" text-anchor="middle" fill="#111827" font-family="'Inter', sans-serif" font-size="16" font-weight="700">LUKE UX</text>
</svg>
