<svg width="152" height="53" viewBox="0 0 152 53" fill="none" xmlns="http://www.w3.org/2000/svg">
<path d="M2.214 8.2H8.154V40.6H17.928V46H2.214V8.2ZM29.4165 46.54C26.5365 46.54 24.3405 45.73 22.8285 44.11C21.3165 42.454 20.5605 40.096 20.5605 37.036V8.2H26.5005V37.468C26.5005 38.764 26.7525 39.7 27.2565 40.276C27.7965 40.852 28.5525 41.14 29.5245 41.14C30.4965 41.14 31.2345 40.852 31.7385 40.276C32.2785 39.7 32.5485 38.764 32.5485 37.468V8.2H38.2725V37.036C38.2725 40.096 37.5165 42.454 36.0045 44.11C34.4925 45.73 32.2965 46.54 29.4165 46.54ZM42.5031 8.2H48.4431V24.13L56.0031 8.2H61.9431L54.8691 22.078L62.0511 46H55.8411L50.8191 29.152L48.4431 33.958V46H42.5031V8.2ZM64.8624 8.2H81.0624V13.6H70.8024V23.59H78.9564V28.99H70.8024V40.6H81.0624V46H64.8624V8.2Z" fill="#E42410"/>
<rect x="94" y="1" width="57" height="51" rx="17" fill="#FCD100" stroke="black" stroke-width="2"/>
<path d="M112.657 45.51C109.937 45.51 107.863 44.745 106.435 43.215C105.007 41.651 104.293 39.424 104.293 36.534V9.3H109.903V36.942C109.903 38.166 110.141 39.05 110.617 39.594C111.127 40.138 111.841 40.41 112.759 40.41C113.677 40.41 114.374 40.138 114.85 39.594C115.36 39.05 115.615 38.166 115.615 36.942V9.3H121.021V36.534C121.021 39.424 120.307 41.651 118.879 43.215C117.451 44.745 115.377 45.51 112.657 45.51ZM129.913 26.742L123.742 9.3H129.658L133.432 20.826H133.534L137.41 9.3H142.714L136.543 26.742L143.02 45H137.104L133.024 32.556H132.922L128.74 45H123.436L129.913 26.742Z" fill="black"/>
</svg>
