<svg width="24" height="24" viewBox="0 0 24 24" fill="none" xmlns="http://www.w3.org/2000/svg">
<path d="M9.66 18.9601H4.56C3.76471 18.9601 3.12 18.3153 3.12 17.5201V6.00006C3.12 5.20477 3.76471 4.56006 4.56 4.56006H8.64C9.09326 4.56006 9.52005 4.77346 9.792 5.13606L11.088 6.86406C11.36 7.22666 11.7868 7.44006 12.24 7.44006H19.44C20.2353 7.44006 20.88 8.08477 20.88 8.88006V10.3838M14.88 16.2H18.0002M16.4401 14.64V17.7602M20.88 16.2001C20.88 18.6522 18.8921 20.6401 16.44 20.6401C13.9879 20.6401 12 18.6522 12 16.2001C12 13.7479 13.9879 11.7601 16.44 11.7601C18.8921 11.7601 20.88 13.7479 20.88 16.2001Z" stroke="#323544" stroke-width="1.92" stroke-linecap="round" stroke-linejoin="round"/>
</svg>
