<svg width="64" height="64" viewBox="0 0 64 64" fill="none" xmlns="http://www.w3.org/2000/svg">
  <rect x="10" y="6" width="36" height="52" rx="4" fill="#2563EB"/>
  <rect x="16" y="14" width="24" height="6" rx="1" fill="white" opacity="0.9"/>
  <rect x="16" y="24" width="24" height="3" rx="1" fill="white" opacity="0.8"/>
  <rect x="16" y="30" width="24" height="3" rx="1" fill="white" opacity="0.8"/>
  <rect x="16" y="36" width="24" height="3" rx="1" fill="white" opacity="0.8"/>
  <path d="M46 22L46 12L54 20L46 22Z" fill="#1E40AF"/>
  <rect x="14" y="44" width="28" height="12" rx="2" fill="white"/>
  <text x="17" y="53" fill="#1E3A8A" font-family="Arial, Helvetica, sans-serif" font-size="9" font-weight="700">DOCX</text>
</svg>
<svg width="24" height="24" viewBox="0 0 24 24" fill="none" xmlns="http://www.w3.org/2000/svg">
<path d="M15.521 16.5918C15.6904 16.5918 15.8254 16.5374 15.9262 16.4286C16.031 16.3157 16.0834 16.1665 16.0834 15.9811V14.796C16.0834 14.6106 16.031 14.4634 15.9262 14.3546C15.8254 14.2417 15.6904 14.1853 15.521 14.1853C15.3558 14.1853 15.2207 14.2417 15.1159 14.3546C15.0152 14.4634 14.9648 14.6106 14.9648 14.796V15.9811C14.9648 16.1665 15.0152 16.3157 15.1159 16.4286C15.2207 16.5374 15.3558 16.5918 15.521 16.5918Z" fill="#323544"/>
<path d="M11.3135 16.5195C11.2933 16.5195 11.2832 16.5094 11.2832 16.4893V14.2642C11.2832 14.244 11.2933 14.2339 11.3135 14.2339H11.8274C11.9725 14.2339 12.0894 14.2883 12.1781 14.3972C12.2668 14.502 12.3111 14.6411 12.3111 14.8144V15.939C12.3071 16.1124 12.2607 16.2535 12.1721 16.3623C12.0834 16.4671 11.9705 16.5195 11.8335 16.5195H11.3135Z" fill="#323544"/>
<path fill-rule="evenodd" clip-rule="evenodd" d="M10.5 11.75C9.67157 11.75 9 12.4216 9 13.25V17.5058C9 18.3342 9.67157 19.0058 10.5 19.0058H20.5C21.3284 19.0058 22 18.3342 22 17.5058V13.25C22 12.4216 21.3284 11.75 20.5 11.75H10.5ZM18.3763 17.3477C18.6302 17.4767 18.9225 17.5412 19.253 17.5412C19.5835 17.5412 19.8738 17.4808 20.1237 17.3598C20.3777 17.2349 20.5732 17.0615 20.7102 16.8398C20.8513 16.6181 20.9218 16.3621 20.9218 16.0719C20.9218 16.0356 20.8916 16.0155 20.8311 16.0114L19.8758 15.9631C19.8476 15.959 19.8254 15.9631 19.8093 15.9752C19.7932 15.9873 19.7851 16.0054 19.7851 16.0296C19.7851 16.1908 19.7367 16.3218 19.64 16.4226C19.5432 16.5194 19.4142 16.5677 19.253 16.5677C19.0918 16.5677 18.9628 16.5194 18.866 16.4226C18.7693 16.3218 18.7209 16.1908 18.7209 16.0296V14.7296C18.7209 14.5643 18.7693 14.4333 18.866 14.3366C18.9628 14.2358 19.0918 14.1854 19.253 14.1854C19.4142 14.1854 19.5432 14.2358 19.64 14.3366C19.7367 14.4333 19.7851 14.5643 19.7851 14.7296C19.7851 14.7739 19.8093 14.7961 19.8577 14.7961H19.8758L20.8311 14.7356C20.8916 14.7276 20.9218 14.7054 20.9218 14.6691C20.9218 14.3789 20.8513 14.1249 20.7102 13.9073C20.5732 13.6856 20.3777 13.5142 20.1237 13.3933C19.8738 13.2724 19.5835 13.2119 19.253 13.2119C18.9225 13.2119 18.6302 13.2764 18.3763 13.4054C18.1263 13.5344 17.9308 13.7158 17.7897 13.9496C17.6527 14.1834 17.5842 14.4535 17.5842 14.7598V15.9812C17.5842 16.2916 17.6527 16.5657 17.7897 16.8035C17.9308 17.0373 18.1263 17.2187 18.3763 17.3477ZM15.5211 17.5654C15.1866 17.5654 14.8903 17.4989 14.6323 17.3659C14.3784 17.2288 14.1808 17.0394 14.0398 16.7975C13.8987 16.5516 13.8281 16.2674 13.8281 15.9449V14.8082C13.8281 14.4938 13.8987 14.2156 14.0398 13.9738C14.1808 13.7319 14.3784 13.5445 14.6323 13.4114C14.8903 13.2784 15.1866 13.2119 15.5211 13.2119C15.8598 13.2119 16.156 13.2784 16.41 13.4114C16.668 13.5445 16.8675 13.7319 17.0086 13.9738C17.1497 14.2156 17.2202 14.4938 17.2202 14.8082V15.9449C17.2202 16.2674 17.1497 16.5516 17.0086 16.7975C16.8675 17.0394 16.668 17.2288 16.41 17.3659C16.156 17.4989 15.8598 17.5654 15.5211 17.5654ZM10.1707 17.4687C10.1868 17.4848 10.209 17.4929 10.2372 17.4929H11.7911C12.1176 17.4929 12.4059 17.4365 12.6558 17.3236C12.9097 17.2107 13.1052 17.0515 13.2423 16.8459C13.3794 16.6403 13.4479 16.4025 13.4479 16.1324V14.6208C13.4479 14.3507 13.3794 14.1129 13.2423 13.9073C13.1052 13.7017 12.9097 13.5425 12.6558 13.4296C12.4059 13.3168 12.1176 13.2603 11.7911 13.2603H10.2372C10.209 13.2603 10.1868 13.2684 10.1707 13.2845C10.1545 13.3006 10.1465 13.3228 10.1465 13.351V17.4022C10.1465 17.4304 10.1545 17.4526 10.1707 17.4687Z" fill="#323544"/>
<path d="M5.38427 9.00073C5.45795 8.8385 5.56064 8.68917 5.68901 8.56072L11.0567 3.18967C11.1854 3.06093 11.335 2.95799 11.4976 2.88417M5.38427 9.00073H10.0009C10.8297 9.00073 11.5015 8.32851 11.5009 7.49966L11.4976 2.88417M5.38427 9.00073C5.29661 9.19374 5.25 9.40499 5.25 9.62105V19.75C5.25 20.5784 5.92157 21.25 6.75 21.25H17.25C18.0784 21.25 18.75 20.5784 18.75 19.75V18.9854M11.4976 2.88417C11.6905 2.79658 11.9017 2.75 12.1177 2.75H17.25C18.0784 2.75 18.75 3.42157 18.75 4.25V11.7656" stroke="#323544" stroke-linecap="round" stroke-linejoin="round"/>
</svg>
