<svg width="18" height="18" viewBox="0 0 24 24" fill="none" xmlns="http://www.w3.org/2000/svg">
  <path d="M21.6 12.227c0-.637-.057-1.25-.163-1.84H12v3.48h5.4a4.61 4.61 0 01-2 3.02v2.51h3.24c1.89-1.74 2.96-4.31 2.96-7.17z" fill="#4285F4"/>
  <path d="M12 22c2.7 0 4.96-.9 6.61-2.6l-3.24-2.51c-.9.6-2.05.96-3.37.96-2.59 0-4.79-1.75-5.57-4.1H3.08v2.58A9.997 9.997 0 0012 22z" fill="#34A853"/>
  <path d="M6.43 13.75A5.99 5.99 0 016.1 12c0-.61.11-1.2.33-1.75V7.67H3.08A10.005 10.005 0 002 12c0 1.6.38 3.11 1.08 4.33l3.35-2.58z" fill="#FBBC05"/>
  <path d="M12 6.5c1.47 0 2.78.5 3.81 1.47l2.86-2.86C16.95 3.4 14.7 2.5 12 2.5A9.997 9.997 0 003.08 7.67l3.35 2.58C7.21 8.25 9.41 6.5 12 6.5z" fill="#EA4335"/>
  <path d="M2 2h20v20H2V2z" fill="none"/>
</svg>

