<svg width="20" height="20" viewBox="0 0 20 20" fill="none" xmlns="http://www.w3.org/2000/svg">
<path d="M11.8176 8.18203L16.3372 3.66244M11.8176 11.8177L16.3372 16.3372M3.66244 16.3372L8.18203 11.8177M3.66244 3.66249L8.18203 8.18208M9.99979 12.5707C8.57996 12.5707 7.42894 11.4197 7.42894 9.99991C7.42894 8.58008 8.57996 7.42906 9.99979 7.42906C11.4196 7.42906 12.5707 8.58008 12.5707 9.99991C12.5707 11.4197 11.4196 12.5707 9.99979 12.5707ZM9.99988 17.7081C5.74278 17.7081 2.29163 14.2571 2.29163 9.99991C2.29163 5.74281 5.74278 2.29175 9.99988 2.29175C14.257 2.29175 17.7082 5.74281 17.7082 9.99991C17.7082 14.2571 14.257 17.7081 9.99988 17.7081Z" stroke="#323544" stroke-width="1.5" stroke-linecap="round" stroke-linejoin="round"/>
</svg>
