<svg width="49" height="50" viewBox="0 0 49 50" fill="none" xmlns="http://www.w3.org/2000/svg">
<rect x="0.5" y="0.5" width="47.2422" height="49" stroke="#F5F5F5"/>
<path d="M28.3998 17H35.7083M30.8928 25H35.711M28.3969 21H32.0511" stroke="#323544" stroke-width="1.28" stroke-linecap="round" stroke-linejoin="round"/>
<path d="M28.3979 21.7188V14.5C28.3979 12.8431 29.6938 11.5 31.2924 11.5H39.0762C40.6749 11.5 41.9707 12.8431 41.9707 14.5V35.5C41.9707 37.1568 40.6749 38.5 39.0762 38.5H37.5978M6.27148 14.5083V35.4948C6.27148 37.1516 7.5674 38.4948 9.16602 38.4948H29.4148C31.9934 38.4948 33.285 35.2634 31.4614 33.3736L11.2128 12.3869C9.3893 10.4971 6.27148 11.8356 6.27148 14.5083ZM12.0605 21.7422V32.497H22.4372L12.0605 21.7422Z" stroke="#323544" stroke-width="1.92" stroke-linecap="round" stroke-linejoin="round"/>
</svg>
