<svg width="24" height="24" viewBox="0 0 24 24" fill="none" xmlns="http://www.w3.org/2000/svg">
<path d="M3.12 16.5216V6.48004C3.12 5.68475 3.7647 5.04004 4.56 5.04004H8.63999C9.09325 5.04004 9.52005 5.25344 9.79199 5.61604L11.088 7.34404C11.36 7.70664 11.7868 7.92004 12.24 7.92004H18.24C19.0353 7.92004 19.68 8.56475 19.68 9.36004V11.5405M19.68 11.5405C20.5437 11.6867 21.1009 12.592 20.7881 13.4521L18.9554 18.4921C18.7484 19.0612 18.2075 19.44 17.6021 19.44H4.56651C3.74333 19.44 3.1263 18.7624 3.12526 17.9999M19.68 11.5405C19.6007 11.527 19.5188 11.52 19.4348 11.52H6.39924C5.79371 11.52 5.25287 11.8989 5.04594 12.4679L3.2132 17.5079C3.15349 17.6721 3.12549 17.838 3.12526 17.9999M3.12526 17.9999V16.5216" stroke="#323544" stroke-width="1.92" stroke-linecap="round" stroke-linejoin="round"/>
</svg>
