<svg width="24" height="24" viewBox="0 0 24 24" fill="none" xmlns="http://www.w3.org/2000/svg">
<path d="M11.9993 3.05273C16.9031 3.05273 20.8785 7.02889 20.8785 11.9327C20.8785 16.8366 16.9031 20.8128 11.9993 20.8128C7.09547 20.8128 3.12012 16.8366 3.12012 11.9328C3.12012 7.02889 7.09547 3.05273 11.9993 3.05273Z" stroke="#323544" stroke-linecap="round" stroke-linejoin="round"/>
<path d="M11.5433 7.8246C11.687 7.38236 12.3126 7.38236 12.4563 7.8246L13.1744 10.0349C13.2387 10.2326 13.423 10.3665 13.6309 10.3665H15.955C16.4199 10.3665 16.6133 10.9615 16.237 11.2349L14.357 12.6008C14.1887 12.723 14.1183 12.9397 14.1825 13.1375L14.9007 15.3477C15.0444 15.79 14.5382 16.1577 14.1621 15.8844L12.2819 14.5183C12.1137 14.3961 11.8859 14.3961 11.7176 14.5183L9.83751 15.8844C9.46133 16.1577 8.95518 15.79 9.09887 15.3477L9.81702 13.1375C9.88128 12.9397 9.81088 12.723 9.64264 12.6008L7.7625 11.2349C7.38633 10.9615 7.57965 10.3665 8.04464 10.3665H10.3686C10.5766 10.3665 10.7609 10.2326 10.8251 10.0349L11.5433 7.8246Z" stroke="#323544" stroke-linecap="round" stroke-linejoin="round"/>
</svg>
