<svg width="24" height="24" viewBox="0 0 24 24" fill="none" xmlns="http://www.w3.org/2000/svg">
<path d="M6.98471 5.77842C6.30323 5.38497 5.43172 5.6184 5.03828 6.29988L3.58293 8.82063C3.18957 9.50195 3.42301 10.3731 4.10432 10.7665C5.05397 11.3148 5.05398 12.6855 4.10433 13.2337C3.42302 13.6271 3.18959 14.4983 3.58295 15.1796L5.03831 17.7004C5.43175 18.3818 6.30325 18.6153 6.98473 18.2219C7.93447 17.6735 9.12183 18.3589 9.12183 19.4555C9.12183 20.2423 9.75965 20.8801 10.5464 20.8801H13.4575C14.2442 20.8801 14.8818 20.2423 14.8818 19.4558C14.8818 18.3594 16.0685 17.6741 17.018 18.2222C17.6991 18.6155 18.5701 18.3821 18.9633 17.701L20.4191 15.1795C20.8124 14.4982 20.579 13.6271 19.8977 13.2337C18.9481 12.6855 18.9481 11.3148 19.8977 10.7665C20.579 10.3732 20.8125 9.502 20.4191 8.82069L18.9634 6.29932C18.5701 5.61817 17.6991 5.3848 17.018 5.77806C16.0685 6.3262 14.8818 5.64082 14.8818 4.54454C14.8818 3.75791 14.2442 3.12012 13.4575 3.12012H10.5464C9.75965 3.12012 9.12183 3.75795 9.12183 4.54475C9.12183 5.64143 7.93446 6.32676 6.98471 5.77842Z" stroke="#323544" stroke-width="1.5" stroke-linecap="round" stroke-linejoin="round"/>
<path d="M9.46387 10.6381C9.46386 10.2163 9.71126 9.8337 10.0959 9.6607L11.5605 9.00202C11.84 8.87628 12.1601 8.87628 12.4396 9.00202L13.9041 9.6607C14.2888 9.83379 14.5362 10.2163 14.5362 10.6381V12.2258C14.5363 12.8336 14.2782 13.4128 13.8263 13.8192L12.7168 14.8174C12.3093 15.184 11.6908 15.184 11.2834 14.8174L10.1737 13.8192C9.72193 13.4128 9.4639 12.8336 9.46389 12.2258L9.46387 10.6381Z" stroke="#323544" stroke-width="1.5" stroke-linecap="round" stroke-linejoin="round"/>
</svg>
